# xmcd
#
# Track frame offsets: 
#        150
#        11525
#        21820
#        34130
#        46590
#        57647
#        69277
#        79022
#        92000
#        110440
#        122732
#        135215
#        143897
#        156402
#        171910
#        183330
#        195710
#        207370
#        218635
#        228972
#
# Disc length: 3198 seconds
#
# Revision: 3
# Processed by: cddbd v1.5.2PL0 Copyright (c) Steve Scherf et al.
# Submitted via: ExactAudioCopy v1.0b3
#
DISCID=0c0c7c14
DTITLE=Various Artist - Country Love - Romancing with Country
DYEAR=1997
DGENRE=Country
TTITLE0=Patsy Cline - Just Out Of Reach
TTITLE1=Sandford Clark - Climbin' The Walls
TTITLE2=Faron Young - Country Girl
TTITLE3=Bobby Bare - When Love Is Gone
TTITLE4=Sandford Clark - Big Big Day Tomorrow
TTITLE5=Patsy Cline - Let The Teardrops Fall
TTITLE6=Buck Owens - There Goes My Love
TTITLE7=Bobby Bare - I Took A Memory To Lunch
TTITLE8=Roy Clark - Mary Ann Regrets
TTITLE9=Tommy Overstreet - I'll Never Break These Chains
TTITLE10=Patsy Cline - Fingerprints
TTITLE11=George Jones - That's The Way I Feel
TTITLE12=Red Sovine - A Wound Time Can't Erase
TTITLE13=Cash McCall - Across The Wide Missouri
TTITLE14=Bobby Bare - That's How I Got To Memphis
TTITLE15=Lee Conway - City Boy
TTITLE16=Jerry Wallace - There She Goes
TTITLE17=Carl Belew - Little Miss Heartache
TTITLE18=Dave Dudley - Seven Lonely Days
TTITLE19=Glen Campbell - The Man With The Golden Gun
EXTD=YEAR: 1997 ID3G: 2
EXTT0=
EXTT1=
EXTT2=
EXTT3=
EXTT4=
EXTT5=
EXTT6=
EXTT7=
EXTT8=
EXTT9=
EXTT10=
EXTT11=
EXTT12=
EXTT13=
EXTT14=
EXTT15=
EXTT16=
EXTT17=
EXTT18=
EXTT19=
PLAYORDER=
